<svg width="30" height="30" viewBox="0 0 30 30" fill="none" xmlns="http://www.w3.org/2000/svg">
<path d="M22.4377 2.91699H7.56224C5.95444 2.917 4.41249 3.5557 3.2756 4.69259C2.13871 5.82948 1.50001 7.37143 1.5 8.97924V15.0321C1.5 15.8282 1.6568 16.6166 1.96146 17.3521C2.26612 18.0876 2.71266 18.7559 3.27559 19.3188C3.83853 19.8817 4.50682 20.3283 5.24233 20.6329C5.97784 20.9376 6.76615 21.0944 7.56226 21.0944H14.9681L24.2729 27.0277C24.3258 27.0615 24.3868 27.0804 24.4496 27.0824C24.5123 27.0845 24.5744 27.0697 24.6295 27.0395C24.6845 27.0093 24.7304 26.9649 24.7624 26.9109C24.7944 26.8569 24.8112 26.7953 24.8112 26.7325V20.6113C25.9055 20.1456 26.8386 19.3684 27.4945 18.3764C28.1504 17.3843 28.5 16.2214 28.5 15.0321V8.97924C28.5 7.37143 27.8613 5.82947 26.7244 4.69258C25.5875 3.55569 24.0456 2.91699 22.4377 2.91699Z" fill="white"/>
</svg>
