<svg width="30" height="30" viewBox="0 0 30 30" fill="none" xmlns="http://www.w3.org/2000/svg">
<path d="M14.3402 28.7101C13.3502 28.4101 12.7202 27.4501 12.7202 26.4301V25.6501C12.7202 25.6501 12.7202 25.6201 12.7502 25.6201H17.4902V26.4601C17.4602 28.0201 15.9602 29.2201 14.3402 28.7101Z" fill="white"/>
<path d="M25.1702 25.0801H5.0102C4.1402 25.0801 3.4502 24.3901 3.4502 23.5201V23.2501C3.4502 22.8301 3.6002 22.4401 3.9002 22.1401L6.0002 20.1001V13.4701C6.0002 9.45009 8.5202 6.06009 12.3002 4.86009C12.3302 4.86009 12.3302 4.83009 12.3302 4.80009V4.56009C12.3302 3.66009 12.7502 2.79009 13.5002 2.31009C15.5402 0.990089 17.7902 2.58009 17.7902 4.56009V4.80009C21.6002 6.00009 24.1502 9.39009 24.1502 13.4401V20.1001L26.2502 22.1701C26.5502 22.4701 26.7002 22.8601 26.7002 23.2801V23.5501C26.7302 24.3901 26.0402 25.0801 25.1702 25.0801Z" fill="white"/>
</svg>
